<svg width="40" height="49" viewBox="0 0 40 49" fill="none" xmlns="http://www.w3.org/2000/svg">
<path d="M38.1113 22.9875C38.1169 22.3027 37.6802 21.6916 37.0309 21.4761L30.8521 19.3649V16.1025C31.2406 15.6658 31.4547 15.103 31.4576 14.5188V10.2838C31.4576 9.28136 30.6452 8.46894 29.6428 8.46894H26.6171V7.86493C26.6143 5.52695 24.7201 3.63279 22.3835 3.62988H17.5431C15.2065 3.63272 13.3124 5.52695 13.3095 7.86493V8.46894H10.2838C9.28144 8.46894 8.46902 9.28136 8.46902 10.2838V14.5188C8.47186 15.103 8.68595 15.6658 9.07445 16.1025V19.3649L2.89573 21.4789C2.24922 21.6987 1.81533 22.3055 1.81533 22.9889C1.81533 23.6709 2.24918 24.2777 2.89573 24.4975L5.55414 25.4077L2.8929 26.3179C2.24639 26.5391 1.8125 27.1459 1.8125 27.8279C1.8125 28.5099 2.24635 29.1167 2.8929 29.3379L5.55414 30.2468L2.8929 31.157C2.24639 31.3782 1.8125 31.985 1.8125 32.667C1.8125 33.349 2.24635 33.9558 2.8929 34.177L19.4375 39.8385C19.7763 39.9547 20.1435 39.9547 20.4838 39.8385L37.0313 34.1799C37.6778 33.9587 38.1117 33.3519 38.1117 32.6699C38.1117 31.9879 37.6778 31.3811 37.0313 31.1599L34.3729 30.2468L37.0341 29.3366C37.6806 29.1168 38.1145 28.51 38.1145 27.8266C38.1145 27.1446 37.6807 26.5378 37.0341 26.318L34.3729 25.4078L37.0341 24.4976C37.6821 24.2806 38.1174 23.671 38.1117 22.9876L38.1113 22.9875ZM10.2836 16.8527C10.4807 16.908 10.6849 16.9363 10.889 16.9392H16.9389V17.5446V17.5432C16.9389 18.5456 17.7513 19.358 18.7537 19.358H21.174H21.1725C22.1749 19.358 22.9874 18.5456 22.9874 17.5432V16.9392H29.0372C29.2414 16.9363 29.4456 16.908 29.6426 16.8527V21.7781C29.6426 21.9383 29.5788 22.0929 29.4654 22.2063C29.352 22.3197 29.1975 22.3835 29.0372 22.3835H10.8891C10.5545 22.3835 10.2837 22.1127 10.2837 21.7781L10.2836 16.8527ZM18.1483 16.9392H21.7779V17.5446V17.5432C21.7779 17.7034 21.7141 17.8579 21.6007 17.9714C21.4873 18.0848 21.3327 18.1486 21.1725 18.1486H18.7537C18.4191 18.1486 18.1483 17.8778 18.1483 17.5432L18.1483 16.9392ZM14.5187 7.86511C14.5201 6.1949 15.8741 4.84232 17.5429 4.83949H22.3834C24.0521 4.84232 25.4061 6.19493 25.4076 7.86511V8.46912H24.1982V7.86511C24.1982 6.86271 23.3857 6.05029 22.3834 6.05029H17.5429C16.5405 6.05029 15.7281 6.86271 15.7281 7.86511V8.46912H14.5187V7.86511ZM22.9873 8.46912H16.9389V7.86511C16.9389 7.5305 17.2097 7.25969 17.5429 7.25969H22.3834C22.5436 7.25969 22.6967 7.32349 22.8102 7.43691C22.9236 7.55034 22.9874 7.70488 22.9874 7.8651L22.9873 8.46912ZM9.67965 10.2839C9.67965 9.95074 9.95045 9.67992 10.2837 9.67992H29.6426C29.8029 9.67992 29.956 9.74373 30.0694 9.85715C30.1829 9.97058 30.2466 10.1237 30.2466 10.2839V14.519C30.2466 14.8394 30.119 15.1471 29.8922 15.3739C29.6653 15.6008 29.3577 15.7284 29.0372 15.7284H10.8891C10.2213 15.7284 9.67969 15.1868 9.67969 14.519L9.67965 10.2839ZM36.638 32.3042C36.794 32.3566 36.9003 32.5041 36.9003 32.67C36.9003 32.8358 36.794 32.9819 36.638 33.0343L20.0934 38.6973H20.092C20.0084 38.7271 19.9162 38.7271 19.8311 38.6973L3.288 33.0303C3.13204 32.9779 3.0257 32.8304 3.0257 32.6646C3.0257 32.4987 3.13204 32.3526 3.288 32.3002L7.42251 30.8866L19.4398 34.9997V35.0011C19.7787 35.1174 20.1473 35.1174 20.4862 35.0011L32.5035 30.888L36.638 32.3042ZM36.638 27.4651C36.794 27.5176 36.9003 27.6651 36.9003 27.8295C36.9003 27.9954 36.794 28.1429 36.638 28.1953L20.0934 33.8583H20.092C20.0084 33.888 19.9162 33.888 19.8311 33.8583L3.288 28.1913C3.13204 28.1389 3.0257 27.9914 3.0257 27.8255C3.0257 27.6596 3.13204 27.5122 3.288 27.4597L7.42251 26.0476L19.4398 30.1607C19.7787 30.2784 20.1473 30.2784 20.4862 30.1607L32.5035 26.0476L36.638 27.4651ZM36.638 23.3564L20.0934 29.0194H20.092C20.0084 29.0477 19.9162 29.0477 19.8311 29.0194L3.288 23.351C3.13204 23.2985 3.0257 23.151 3.0257 22.9866C3.0257 22.8207 3.13204 22.6732 3.288 22.6208L9.07399 20.6443V21.7786C9.07399 22.781 9.88641 23.5934 10.8888 23.5934H29.037C30.0393 23.5934 30.8518 22.781 30.8518 21.7786V20.6443L36.6378 22.625C36.7937 22.6775 36.9001 22.8249 36.9001 22.9908C36.9001 23.1567 36.794 23.3039 36.638 23.3564Z" fill="white"/>
</svg>
