<svg width="40" height="49" viewBox="0 0 40 49" fill="none" xmlns="http://www.w3.org/2000/svg">
<g clip-path="url(#clip0_1280_83)">
<path d="M22.0108 3.74319C21.2817 3.60207 20.5408 3.75495 19.9254 4.17047C19.3099 4.58599 18.8944 5.21711 18.7533 5.94623C18.6122 6.67535 18.765 7.41623 19.1806 8.03167C19.5961 8.64711 20.2272 9.06263 20.9563 9.20375C21.1327 9.23903 21.313 9.25471 21.4894 9.25471C22.0382 9.25471 22.5753 9.09007 23.0418 8.77647C23.6572 8.36095 24.0727 7.72983 24.2138 7.00071C24.355 6.27159 24.2021 5.53071 23.7866 4.91527C23.371 4.29983 22.7399 3.88431 22.0108 3.74319ZM23.273 6.82039C23.179 7.29863 22.9085 7.71023 22.5047 7.98463C22.101 8.25903 21.6149 8.35703 21.1406 8.26295C20.6623 8.16887 20.2507 7.89839 19.9763 7.49463C19.7019 7.09087 19.6039 6.60479 19.698 6.13047C19.7921 5.65223 20.0626 5.24063 20.4663 4.96623C20.7721 4.75847 21.1249 4.65263 21.4855 4.65263C21.6031 4.65263 21.7168 4.66439 21.8344 4.68791C22.3126 4.78199 22.7242 5.05247 22.9986 5.45623C23.2652 5.85607 23.3671 6.34215 23.273 6.82039ZM38.7218 36.7339H36.5266V16.1892C36.5266 15.9266 36.311 15.711 36.0483 15.711H29.8743V10.1406C29.8743 10.1367 29.8743 10.1367 29.8743 10.1328V7.43975H33.8727C34.0374 7.43975 34.1942 7.35351 34.2804 7.21239C34.3666 7.07127 34.3745 6.89487 34.3 6.74591L33.5121 5.19751L34.3 3.64911C34.3745 3.50015 34.3706 3.32375 34.2804 3.18263C34.1942 3.04151 34.0374 2.95527 33.8727 2.95527H29.8743V1.98703C29.8743 1.72439 29.6587 1.50879 29.3961 1.50879C29.1334 1.50879 28.9178 1.72439 28.9178 1.98703V3.42959V6.95759V8.86663C28.8865 8.85879 28.8551 8.85095 28.8238 8.84311C28.663 8.81175 28.4984 8.81175 28.3377 8.84311L21.8462 10.0661L20.7015 9.84663C19.8862 9.68983 19.2982 9.74471 18.8552 10.023C18.4005 10.3092 18.1143 10.8031 17.9654 11.5793L14.9313 23.3706C14.9274 23.3785 14.9274 23.3902 14.9234 23.3981C14.7588 24.2487 14.751 24.6917 14.9156 25.0366H11.3758C11.1132 25.0366 10.8976 25.2522 10.8976 25.5149V29.9484H3.15168C2.88904 29.9484 2.67344 30.164 2.67344 30.4266V36.7261H0.47824C0.2156 36.7339 0 36.9456 0 37.2122C0 37.4748 0.2156 37.6904 0.47824 37.6904H3.15168H11.3758H19.6H27.8242H36.0483H38.7218C38.9844 37.6904 39.2 37.4748 39.2 37.2122C39.2 36.9456 38.9844 36.7339 38.7218 36.7339ZM33.0887 3.91175L32.5438 4.98191C32.4733 5.11911 32.4733 5.27983 32.5438 5.41703L33.0887 6.48719H29.8743V3.91175H33.0887ZM28.9178 15.711H27.8281C27.5654 15.711 27.3498 15.9266 27.3498 16.1892V20.56H23.9865C23.9865 20.5522 23.9904 20.5443 23.9904 20.5365L24.355 18.6392C24.5 17.8826 24.0061 17.1496 23.2495 17.0046L22.6811 16.8948L23.5318 12.4887L28.8198 11.3911C28.8512 11.3833 28.8826 11.3754 28.9139 11.3676V15.711H28.9178ZM15.8603 23.598L18.8944 11.8066C18.8983 11.7988 18.8983 11.787 18.9022 11.7792C19.0316 11.1167 19.2276 10.9246 19.3648 10.8384C19.5882 10.6973 19.9685 10.6816 20.5251 10.7874L21.756 11.0265C21.8148 11.0383 21.8775 11.0383 21.9363 11.0265L28.5141 9.78783C28.5572 9.77999 28.6003 9.77999 28.6395 9.78783C28.7767 9.81527 28.8826 9.92111 28.91 10.0583C28.9257 10.1485 28.9061 10.2386 28.8551 10.3131C28.8042 10.3876 28.7258 10.4385 28.6356 10.4542C28.6317 10.4542 28.6278 10.4542 28.6278 10.4542L23.0222 11.6185C22.834 11.6577 22.685 11.8066 22.6498 11.9948L21.7403 16.7145L19.6157 16.3068C19.357 16.2558 19.1061 16.4283 19.0551 16.687C19.0042 16.9458 19.1766 17.1966 19.4354 17.2476L23.0653 17.9493C23.3005 17.9963 23.4573 18.2237 23.4102 18.4628L23.0457 20.3562L23.0418 20.3679C23.0222 20.4346 23.0182 20.5012 23.0261 20.5639H22.2068C22.2146 20.5051 22.2107 20.4424 22.195 20.3797C22.1794 20.3209 22.1794 20.2582 22.1911 20.1954L22.3401 19.4154C22.3636 19.2899 22.3362 19.1606 22.2656 19.0547C22.195 18.9489 22.0853 18.8783 21.9598 18.8548L18.9179 18.2668C18.914 18.2668 18.914 18.2668 18.9101 18.2668C18.9022 18.2668 18.8944 18.2629 18.8826 18.2629C18.8748 18.2629 18.867 18.2629 18.8591 18.259C18.8513 18.259 18.8434 18.259 18.8356 18.259C18.8278 18.259 18.8199 18.259 18.8121 18.259C18.8042 18.259 18.7964 18.259 18.7886 18.259C18.7807 18.259 18.7729 18.259 18.7611 18.2629C18.7533 18.2629 18.7494 18.2629 18.7415 18.2668C18.7337 18.2668 18.7219 18.2707 18.7141 18.2707C18.7102 18.2707 18.7023 18.2746 18.6984 18.2746C18.6866 18.2786 18.6788 18.2786 18.667 18.2825C18.6631 18.2825 18.6592 18.2864 18.6553 18.2864C18.6435 18.2903 18.6357 18.2942 18.6239 18.2982C18.62 18.2982 18.6161 18.3021 18.6122 18.306C18.6043 18.3099 18.5926 18.3138 18.5847 18.3217C18.5808 18.3256 18.5769 18.3256 18.573 18.3295C18.5651 18.3334 18.5573 18.3413 18.5455 18.3452C18.5416 18.3491 18.5377 18.353 18.5338 18.353C18.5259 18.3609 18.5181 18.3648 18.5102 18.3726C18.5063 18.3766 18.5024 18.3805 18.4985 18.3805C18.4906 18.3883 18.4828 18.3962 18.475 18.404C18.471 18.4079 18.471 18.4118 18.4671 18.4118C18.4593 18.4197 18.4514 18.4275 18.4436 18.4393C18.4397 18.4432 18.4397 18.4432 18.4397 18.4471C18.4318 18.4589 18.424 18.4667 18.4162 18.4785L18.4122 18.4824C18.4044 18.4942 18.3966 18.5059 18.3926 18.5177V18.5216C18.3848 18.5334 18.3809 18.549 18.377 18.5608C18.0085 19.5329 16.8521 23.8018 16.6835 24.4447C16.6169 24.6956 16.3974 24.919 16.1034 24.8642C15.974 24.8406 15.8642 24.7662 15.7898 24.6564C15.7662 24.6133 15.6878 24.4957 15.8603 23.598ZM17.6165 24.6917C17.8164 23.9273 18.7219 20.607 19.1492 19.286L21.313 19.7015L21.2542 20.0112C21.219 20.1954 21.2229 20.3797 21.2621 20.56H19.6C19.3374 20.56 19.1218 20.7756 19.1218 21.0382V25.0366H17.4832C17.5381 24.9308 17.5851 24.8171 17.6165 24.6917ZM3.62992 30.9088H10.8976V36.73H3.62992V30.9088ZM11.8541 30.4306V25.997H19.1218V36.7339H11.8541V30.4306ZM20.0782 25.5188V21.5204H27.3459V36.7339H20.0782V25.5188ZM28.3024 36.7339V21.0422V16.6713H35.5701V36.7339H28.3024Z" fill="white"/>
</g>
<defs>
<clipPath id="clip0_1280_83">
<rect width="39.2" height="49" fill="white"/>
</clipPath>
</defs>
</svg>
