<svg width="20" height="20" viewBox="0 0 20 20" fill="none" xmlns="http://www.w3.org/2000/svg">
<path d="M10 0L11.3328 1.5849L13.0902 0.489435L13.868 2.40862L15.8779 1.90983L16.0245 3.97545L18.0902 4.12215L17.5914 6.132L19.5106 6.90983L18.4151 8.66718L20 10L18.4151 11.3328L19.5106 13.0902L17.5914 13.868L18.0902 15.8779L16.0245 16.0245L15.8779 18.0902L13.868 17.5914L13.0902 19.5106L11.3328 18.4151L10 20L8.66718 18.4151L6.90983 19.5106L6.132 17.5914L4.12215 18.0902L3.97545 16.0245L1.90983 15.8779L2.40862 13.868L0.489435 13.0902L1.5849 11.3328L0 10L1.5849 8.66718L0.489435 6.90983L2.40862 6.132L1.90983 4.12215L3.97545 3.97545L4.12215 1.90983L6.132 2.40862L6.90983 0.489435L8.66718 1.5849L10 0Z" fill="#D2B367"/>
<path d="M6.66668 10L7.87617 11.2095C8.47959 11.8129 8.7813 12.1146 9.14844 12.098C9.51558 12.0813 9.78874 11.7535 10.335 11.098L13.3333 7.5" stroke="white" stroke-width="1.66667" stroke-linecap="round"/>
</svg>
