<svg width="40" height="49" viewBox="0 0 40 49" fill="none" xmlns="http://www.w3.org/2000/svg">
<path d="M19.14 13.8506C13.6352 20.0215 10.0673 27.6701 8.88063 35.8546L8.58203 37.8912L9.79172 38.0673L10.0903 36.0307C11.2464 28.0836 14.7147 20.657 20.0587 14.6698L19.14 13.8506Z" fill="white"/>
<path d="M28.7867 36.75H26.9492V37.975H28.7867V36.75Z" fill="white"/>
<path d="M36.1363 17.15H33.6863V10.4125C33.6863 9.05734 32.5915 7.9625 31.2363 7.9625C30.3023 7.9625 29.4448 8.49844 29.0313 9.34063C28.5566 8.89656 28.0513 8.47547 27.523 8.09266C29.3146 6.86766 31.1904 5.78813 33.1504 4.86172L32.201 6.76047L33.2959 7.31172L35.3554 3.20031L31.244 1.14844L30.6927 2.24328L33.1963 3.49891C30.8305 4.57844 28.5643 5.87234 26.4359 7.36531C25.6855 6.90594 24.9046 6.50016 24.093 6.16328C25.1496 4.96891 25.7315 3.43 25.7238 1.8375V1.225H25.1113C23.381 1.21734 21.7196 1.90641 20.4946 3.13906L19.4534 4.18031L14.4538 2.18203C13.7724 1.90641 12.9915 2.06719 12.4709 2.58781L10.6334 4.42531L12.8307 5.64266C4.11023 8.37594 -0.751484 17.6553 1.9818 26.3758C2.93117 29.4153 4.7457 32.118 7.1957 34.1545L7.97664 33.2128C7.05789 32.4472 6.23102 31.5744 5.51133 30.625H5.61852C6.91242 30.625 7.96133 29.5761 7.96133 28.2822C7.96133 27.9836 8.07617 27.7003 8.29055 27.4936L9.72227 26.0619C10.1663 25.6255 10.4113 25.0283 10.4113 24.4005V23.9947C10.4113 23.3745 10.1663 22.7773 9.72227 22.3333L9.00258 21.6136C8.08383 20.7025 6.60617 20.7025 5.68742 21.6136L5.58023 21.7208C5.37352 21.9352 5.08258 22.05 4.79164 22.05H2.46414C2.45648 21.8433 2.44883 21.6442 2.44883 21.4375C2.44883 20.825 2.48711 20.2125 2.56367 19.6H4.82227C5.87883 19.6 6.73633 18.7425 6.73633 17.6859C6.73633 17.1806 6.53727 16.6906 6.17742 16.3308L4.19445 14.3478C6.2693 10.3666 9.99023 7.49547 14.3696 6.50016L16.1459 7.48781L12.2488 11.3848V13.1841L9.65336 12.1428L6.87414 14.922L10.5568 16.392L12.0268 20.0747L14.806 17.2955L13.7648 14.7H15.564L19.4534 10.8106L22.5159 16.3231L24.3534 14.4856C24.874 13.965 25.0348 13.1841 24.7591 12.5027L22.7609 7.50313L23.1513 7.11266C23.9093 7.39594 24.6443 7.74813 25.3487 8.14625C25.1037 8.33 24.8587 8.52141 24.6137 8.71281L25.3716 9.6775C25.7315 9.39422 26.0913 9.11859 26.4665 8.85063C27.301 9.4325 28.082 10.0909 28.7863 10.8183V17.15H26.3363C25.3257 17.15 24.4988 17.9769 24.4988 18.9875V33.6875C24.4988 34.1545 24.6749 34.5986 24.9888 34.9355C24.2385 35.3336 23.4652 35.6705 22.6613 35.9461V35.4178C22.6613 34.9278 22.4699 34.4608 22.1254 34.1163L20.9999 32.9984C20.8851 32.8836 20.8238 32.7305 20.8238 32.562V31.85C20.8238 31.5131 21.0995 31.2375 21.4363 31.2375C22.447 31.2375 23.2738 30.4106 23.2738 29.4V27.5625C23.2738 26.5519 22.447 25.725 21.4363 25.725H20.1041C19.6141 25.725 19.1471 25.9164 18.8026 26.2609L15.8473 29.2239C15.7324 29.3388 15.5793 29.4 15.4109 29.4H14.6988C13.6882 29.4 12.8613 30.2269 12.8613 31.2375V32.5697C12.8613 33.0597 13.0527 33.5267 13.3973 33.8713L13.9026 34.3766C14.0174 34.4914 14.0787 34.6445 14.0787 34.813V36.3136C13.3207 36.1298 12.5857 35.8848 11.866 35.5862L11.3913 36.7194C16.3066 38.7483 21.8957 38.3042 26.4282 35.525H36.1363C37.147 35.525 37.9738 34.6981 37.9738 33.6875V18.9875C37.9738 17.9769 37.147 17.15 36.1363 17.15ZM4.79164 23.275C5.4118 23.275 6.00898 23.03 6.45305 22.5859L6.56023 22.4788C6.99664 22.0423 7.70867 22.0423 8.14508 22.4788L8.86477 23.1984C9.07914 23.4052 9.19398 23.6961 9.19398 23.987V24.3928C9.19398 24.6914 9.07914 24.9747 8.86477 25.1814L7.42539 26.6208C6.98133 27.0572 6.73633 27.6544 6.73633 28.2822C6.73633 28.9023 6.23102 29.4 5.61852 29.4H4.6768C3.54367 27.5319 2.81633 25.4417 2.55602 23.275H4.79164ZM5.31227 17.2036C5.58023 17.4716 5.58023 17.908 5.31227 18.1759C5.18211 18.3061 5.00602 18.375 4.82992 18.375H2.75508C2.95414 17.4027 3.24508 16.4456 3.63555 15.5269L5.31227 17.2036ZM12.4709 17.9003L11.4909 15.458L9.04852 14.478L9.9443 13.5822L12.3866 14.5622L13.3666 17.0045L12.4709 17.9003ZM22.9446 5.58906L21.3291 7.20453L23.626 12.9544C23.7179 13.1841 23.6643 13.4444 23.4882 13.6128L22.7991 14.3019L19.7366 8.78938L15.0587 13.475H13.4738V11.8902L18.1595 7.20453L14.5916 5.22156L14.584 5.19859C14.5763 5.19859 14.5687 5.19859 14.561 5.20625L12.647 4.14203L13.336 3.45297C13.5121 3.27687 13.7724 3.22328 13.9945 3.31516L19.7443 5.61203L21.3598 4.00422C22.1943 3.16969 23.2815 2.63375 24.4605 2.48828C24.3151 3.65969 23.7868 4.75453 22.9446 5.58906ZM21.4363 36.3059C19.4304 36.7959 17.3479 36.8802 15.3113 36.5586V34.813C15.3113 34.323 15.1199 33.8559 14.7754 33.5114L14.2701 33.0061C14.1552 32.8913 14.094 32.7381 14.094 32.5697V31.2375C14.094 30.9006 14.3696 30.625 14.7065 30.625H15.4262C15.9162 30.625 16.3832 30.4336 16.7277 30.0891L19.683 27.1338C19.7979 27.0189 19.951 26.9577 20.1195 26.9577H21.4363C21.7732 26.9577 22.0488 27.2333 22.0488 27.5702V29.4077C22.0488 29.7445 21.7732 30.0202 21.4363 30.0202C20.4257 30.0202 19.5988 30.847 19.5988 31.8577V32.5773C19.5988 33.0673 19.7902 33.5344 20.1348 33.8789L21.2526 34.9967C21.3674 35.1116 21.4287 35.2647 21.4287 35.4331V36.3059H21.4363ZM30.0113 10.4125C30.0113 9.73875 30.5626 9.1875 31.2363 9.1875C31.9101 9.1875 32.4613 9.73875 32.4613 10.4125V17.15H30.0113V10.4125ZM36.7488 33.6875C36.7488 34.0244 36.4732 34.3 36.1363 34.3H26.3363C25.9995 34.3 25.7238 34.0244 25.7238 33.6875V18.9875C25.7238 18.6506 25.9995 18.375 26.3363 18.375H36.1363C36.4732 18.375 36.7488 18.6506 36.7488 18.9875V33.6875Z" fill="white"/>
<path d="M36.1363 36.75H34.2988V37.975H36.1363V36.75Z" fill="white"/>
<path d="M28.7875 19.5996H27.5625V33.0746H28.7875V19.5996Z" fill="white"/>
<path d="M31.85 19.5996H30.625V33.0746H31.85V19.5996Z" fill="white"/>
<path d="M34.9125 19.5996H33.6875V33.0746H34.9125V19.5996Z" fill="white"/>
<path d="M18.3746 20.2123V20.5721L16.897 22.0498C16.6673 22.2795 16.5371 22.5934 16.5371 22.915V23.2748C16.5371 23.9486 17.0884 24.4998 17.7621 24.4998H19.347C19.6685 24.4998 19.9824 24.3696 20.2121 24.14L21.0773 23.2748H22.0496C22.7234 23.2748 23.2746 22.7236 23.2746 22.0498V20.2123C23.2746 19.5386 22.7234 18.9873 22.0496 18.9873H19.5996C18.9259 18.9873 18.3746 19.5386 18.3746 20.2123ZM19.5996 20.5721V20.2123H22.0496V22.0498H21.0773C20.7557 22.0498 20.4418 22.18 20.2121 22.4096L19.347 23.2748H17.7621V22.915L19.2398 21.4373C19.4695 21.2076 19.5996 20.8937 19.5996 20.5721Z" fill="white"/>
</svg>
